<?xml version="1.0" encoding="UTF-8"?><svg id="a" xmlns="http://www.w3.org/2000/svg" viewBox="0 0 167.6 168.06"><defs><style>.b{fill:none;stroke:#1d1d1b;stroke-miterlimit:10;stroke-width:6px;}</style></defs><path class="b" d="M73.46,65.93c6,9.86,12,19.73,18,29.59,.69,.92,1.27,1.1,1.65,1.11,1.71,.06,2.89-3.14,6.79-10.7,.75-1.46,1.38-2.63,1.77-3.37"/><path class="b" d="M91.53,65.93c6,9.86,12,19.73,18,29.59,.69,.92,1.27,1.1,1.65,1.11,1.71,.06,2.89-3.14,6.79-10.7,.75-1.46,1.38-2.63,1.77-3.37l8.16-13.74h34.59c-1.51-7.76-5.1-20.61-14.62-33.26C133.41,16.36,108.11,1.43,79.05,3.13,44.62,5.15,19.52,29.63,9.24,53.93c-5.62,13.29-6.37,25.49-6.22,33.11"/><path class="b" d="M62.57,65.27c.07,7.19,.15,14.37,.22,21.56,.06,.8,.24,4.41-2.37,7.56-3.28,3.95-8.17,3.8-8.74,3.78H4.79c8.58,39.8,43.33,67.51,80.44,66.89,42.92-.72,80.5-39.16,79.33-86.89"/></svg>